<svg width="14" height="20" viewBox="0 0 14 20" fill="none" xmlns="http://www.w3.org/2000/svg">
<path d="M0.512374 0.938708C0.184301 1.2031 0 1.56165 0 1.9355C0 2.30936 0.184301 2.66791 0.512374 2.9323L9.17482 9.91128L0.512374 16.8903C0.193599 17.1562 0.0172089 17.5123 0.0211961 17.882C0.0251833 18.2517 0.209228 18.6053 0.533691 18.8667C0.858153 19.1281 1.29707 19.2764 1.75591 19.2796C2.21476 19.2828 2.65681 19.1407 2.98686 18.8839L12.8866 10.9081C13.2146 10.6437 13.3989 10.2851 13.3989 9.91128C13.3989 9.53743 13.2146 9.17888 12.8866 8.91449L2.98686 0.938708C2.65869 0.674393 2.21365 0.525909 1.74962 0.525909C1.28558 0.525909 0.840545 0.674393 0.512374 0.938708V0.938708Z" fill="black"/>
</svg>
