<svg width="36" height="36" viewBox="0 0 36 36" fill="none" xmlns="http://www.w3.org/2000/svg">
<path d="M15.22 20.64C17.3075 22.7577 19.8333 24.3926 22.62 25.43L26.39 22.43C26.5018 22.353 26.6343 22.3118 26.77 22.3118C26.9057 22.3118 27.0382 22.353 27.15 22.43L34.15 26.94C34.4157 27.0998 34.6407 27.3192 34.8071 27.5808C34.9735 27.8425 35.0768 28.1392 35.1088 28.4476C35.1408 28.7561 35.1006 29.0677 34.9915 29.3579C34.8824 29.6482 34.7073 29.9091 34.48 30.12L31.2 33.36C30.7303 33.8241 30.1529 34.1648 29.5195 34.3515C28.8861 34.5382 28.2164 34.5652 27.57 34.43C21.1222 33.0983 15.1791 29.9795 10.42 25.43C5.76648 20.8353 2.54627 14.9889 1.14999 8.60001C1.01206 7.96365 1.04085 7.30245 1.23357 6.68049C1.42629 6.05852 1.77641 5.49689 2.24999 5.05001L5.64999 1.77001C5.86039 1.5538 6.11698 1.38799 6.40054 1.28499C6.6841 1.18199 6.98729 1.14448 7.28741 1.17526C7.58752 1.20604 7.87678 1.30432 8.13353 1.46273C8.39028 1.62115 8.60787 1.83559 8.77 2.09001L13.43 9.00001C13.5104 9.10852 13.5538 9.23998 13.5538 9.37501C13.5538 9.51005 13.5104 9.64151 13.43 9.75001L10.36 13.44C11.4256 16.171 13.0857 18.6304 15.22 20.64Z" fill="black"/>
</svg>
