<svg width="47" height="47" viewBox="0 0 47 47" fill="none" xmlns="http://www.w3.org/2000/svg">
<path d="M42.3 17.3265V34.075C42.3 35.6331 41.681 37.1275 40.5793 38.2292C39.4775 39.331 37.9832 39.95 36.425 39.95H10.575C9.01687 39.95 7.52254 39.331 6.42076 38.2292C5.31898 37.1275 4.70001 35.6331 4.70001 34.075V17.3265L22.9031 28.0378C23.084 28.1445 23.2901 28.2007 23.5 28.2007C23.71 28.2007 23.9161 28.1445 24.0969 28.0378L42.3 17.3265ZM36.425 9.39999C37.8706 9.39977 39.2655 9.93252 40.3429 10.8963C41.4204 11.8601 42.1046 13.1874 42.2648 14.624L23.5 25.662L4.73526 14.624C4.89543 13.1874 5.57967 11.8601 6.65708 10.8963C7.73449 9.93252 9.12942 9.39977 10.575 9.39999H36.425Z" fill="black"/>
</svg>
