<svg width="57" height="59" viewBox="0 0 57 59" fill="none" xmlns="http://www.w3.org/2000/svg">
<ellipse cx="28.5" cy="29.5" rx="28.5" ry="29.5" fill="black"/>
<path fill-rule="evenodd" clip-rule="evenodd" d="M21.9534 15.4657C23.5174 15.3915 24.016 15.375 28 15.375C31.984 15.375 32.4827 15.3929 34.0454 15.4657C35.608 15.5386 36.6747 15.7958 37.608 16.1684C38.5854 16.5493 39.472 17.1446 40.2054 17.9146C40.952 18.6695 41.528 19.5825 41.896 20.5918C42.2587 21.5543 42.5067 22.6543 42.5787 24.263C42.6507 25.8786 42.6667 26.3929 42.6667 30.5C42.6667 34.6085 42.6494 35.1227 42.5787 36.7356C42.508 38.3444 42.2587 39.4444 41.896 40.4069C41.528 41.4163 40.9511 42.3308 40.2054 43.0868C39.472 43.8567 38.5854 44.4508 37.608 44.8303C36.6747 45.2043 35.608 45.46 34.048 45.5343C32.4827 45.6085 31.984 45.625 28 45.625C24.016 45.625 23.5174 45.6071 21.9534 45.5343C20.3934 45.4614 19.3267 45.2043 18.3934 44.8303C17.4146 44.4507 16.5278 43.8557 15.7947 43.0868C15.0485 42.3314 14.4711 41.4173 14.1027 40.4082C13.7414 39.4457 13.4934 38.3457 13.4214 36.737C13.3494 35.1214 13.3334 34.6071 13.3334 30.5C13.3334 26.3915 13.3507 25.8772 13.4214 24.2657C13.492 22.6543 13.7414 21.5543 14.1027 20.5918C14.4717 19.5826 15.0495 18.6686 15.796 17.9132C16.5281 17.1439 17.414 16.5485 18.392 16.1684C19.3254 15.7958 20.392 15.54 21.952 15.4657H21.9534ZM33.9267 18.1883C32.38 18.1154 31.916 18.1003 28 18.1003C24.084 18.1003 23.62 18.1154 22.0734 18.1883C20.6427 18.2556 19.8667 18.5017 19.3494 18.7094C18.6654 18.9844 18.176 19.3103 17.6627 19.8396C17.1761 20.3278 16.8016 20.9221 16.5667 21.579C16.3654 22.1125 16.1267 22.9127 16.0614 24.3881C15.9907 25.9831 15.976 26.4616 15.976 30.5C15.976 34.5384 15.9907 35.0169 16.0614 36.6119C16.1267 38.0872 16.3654 38.8875 16.5667 39.421C16.8014 40.0769 17.176 40.6723 17.6627 41.1604C18.136 41.6623 18.7134 42.0486 19.3494 42.2906C19.8667 42.4983 20.6427 42.7444 22.0734 42.8118C23.62 42.8846 24.0827 42.8997 28 42.8997C31.9174 42.8997 32.38 42.8846 33.9267 42.8118C35.3574 42.7444 36.1334 42.4983 36.6507 42.2906C37.3347 42.0156 37.824 41.6898 38.3374 41.1604C38.824 40.6723 39.1987 40.0769 39.4334 39.421C39.6347 38.8875 39.8734 38.0872 39.9387 36.6119C40.0094 35.0169 40.024 34.5384 40.024 30.5C40.024 26.4616 40.0094 25.9831 39.9387 24.3881C39.8734 22.9127 39.6347 22.1125 39.4334 21.579C39.1667 20.8736 38.8507 20.369 38.3374 19.8396C37.8639 19.3378 37.2876 18.9517 36.6507 18.7094C36.1334 18.5017 35.3574 18.2556 33.9267 18.1883ZM26.1267 35.1626C27.1729 35.6117 28.3379 35.6724 29.4226 35.3341C30.5073 34.9959 31.4446 34.2798 32.0742 33.3081C32.7038 32.3364 32.9868 31.1694 32.8748 30.0065C32.7628 28.8436 32.2627 27.7568 31.46 26.9319C30.9484 26.4045 30.3297 26.0007 29.6485 25.7496C28.9673 25.4984 28.2406 25.4061 27.5207 25.4793C26.8008 25.5526 26.1056 25.7895 25.4851 26.1731C24.8646 26.5566 24.3344 27.0773 23.9324 27.6975C23.5305 28.3178 23.267 29.0223 23.1607 29.7602C23.0545 30.4981 23.1082 31.2512 23.3181 31.9651C23.5279 32.679 23.8887 33.3361 24.3743 33.889C24.86 34.4419 25.4585 34.8769 26.1267 35.1626ZM22.6694 25.0027C23.3694 24.2808 24.2005 23.7082 25.1151 23.3175C26.0297 22.9268 27.01 22.7257 28 22.7257C28.99 22.7257 29.9703 22.9268 30.885 23.3175C31.7996 23.7082 32.6307 24.2808 33.3307 25.0027C34.0307 25.7247 34.586 26.5817 34.9649 27.5249C35.3437 28.4681 35.5387 29.4791 35.5387 30.5C35.5387 31.5209 35.3437 32.5319 34.9649 33.4751C34.586 34.4183 34.0307 35.2753 33.3307 35.9972C31.9169 37.4552 29.9994 38.2743 28 38.2743C26.0007 38.2743 24.0832 37.4552 22.6694 35.9972C21.2556 34.5393 20.4613 32.5619 20.4613 30.5C20.4613 28.4381 21.2556 26.4607 22.6694 25.0027ZM37.2107 23.8835C37.3842 23.7147 37.5231 23.5118 37.6191 23.2867C37.7152 23.0616 37.7665 22.8189 37.7699 22.573C37.7734 22.3271 37.729 22.083 37.6393 21.8551C37.5497 21.6272 37.4166 21.4202 37.248 21.2463C37.0794 21.0724 36.8786 20.9352 36.6576 20.8427C36.4366 20.7503 36.1999 20.7045 35.9615 20.7081C35.723 20.7116 35.4877 20.7645 35.2694 20.8636C35.0511 20.9626 34.8543 21.1059 34.6907 21.2847C34.3725 21.6327 34.1982 22.0948 34.205 22.573C34.2117 23.0513 34.399 23.508 34.7269 23.8462C35.0549 24.1844 35.4977 24.3774 35.9615 24.3844C36.4252 24.3914 36.8733 24.2117 37.2107 23.8835Z" fill="#FEEBCD"/>
</svg>
