<svg width="31" height="29" viewBox="0 0 31 29" fill="none" xmlns="http://www.w3.org/2000/svg">
<path d="M30.0762 10.4824C30.0762 11.3379 30.0176 12.2051 29.9004 13.084C29.7832 13.9512 29.5898 14.7891 29.3203 15.5977C29.0625 16.3945 28.7285 17.1445 28.3184 17.8477C27.9082 18.5508 27.4102 19.1602 26.8242 19.6758C26.25 20.1914 25.582 20.6016 24.8203 20.9062C24.0586 21.1992 23.1973 21.3457 22.2363 21.3457C21.6621 21.3457 21.1406 21.293 20.6719 21.1875C20.2031 21.0703 19.793 20.9062 19.4414 20.6953C19.0898 20.4727 18.7969 20.2031 18.5625 19.8867C18.3398 19.5586 18.1699 19.1836 18.0527 18.7617C17.5957 19.2305 17.1445 19.6289 16.6992 19.957C16.2656 20.2734 15.832 20.5371 15.3984 20.748C14.9766 20.959 14.5547 21.1113 14.1328 21.2051C13.7109 21.2988 13.2832 21.3457 12.8496 21.3457C12.2988 21.3457 11.8125 21.2812 11.3906 21.1523C10.9688 21.0117 10.5996 20.8242 10.2832 20.5898C9.97852 20.3555 9.7207 20.0859 9.50977 19.7812C9.31055 19.4648 9.14648 19.1191 9.01758 18.7441C8.88867 18.3691 8.79492 17.9766 8.73633 17.5664C8.68945 17.1562 8.66602 16.7402 8.66602 16.3184C8.66602 15.7676 8.70703 15.1523 8.78906 14.4727C8.88281 13.793 9.0293 13.1016 9.22852 12.3984C9.43945 11.6836 9.71484 10.998 10.0547 10.3418C10.3945 9.67383 10.8164 9.08203 11.3203 8.56641C11.8242 8.03906 12.4102 7.61719 13.0781 7.30078C13.7578 6.98438 14.5371 6.82617 15.416 6.82617C15.8145 6.82617 16.1836 6.86719 16.5234 6.94922C16.8633 7.03125 17.1914 7.16016 17.5078 7.33594C17.8242 7.51172 18.1289 7.74023 18.4219 8.02148C18.7266 8.30273 19.043 8.64844 19.3711 9.05859L19.6699 7.70508C19.7168 7.49414 19.8574 7.33594 20.0918 7.23047C20.3379 7.125 20.7656 7.07227 21.375 7.07227C21.6797 7.07227 21.9316 7.08984 22.1309 7.125C22.3418 7.14844 22.5059 7.18945 22.623 7.24805C22.7402 7.29492 22.8164 7.35938 22.8516 7.44141C22.8867 7.51172 22.8984 7.59961 22.8867 7.70508L21.375 15.5625C21.2109 16.4297 21.2344 17.0684 21.4453 17.4785C21.668 17.877 22.0957 18.0762 22.7285 18.0762C23.1387 18.0762 23.5137 17.9648 23.8535 17.7422C24.1934 17.5195 24.4863 17.2207 24.7324 16.8457C24.9902 16.459 25.207 16.0195 25.3828 15.5273C25.5586 15.0234 25.6992 14.502 25.8047 13.9629C25.9219 13.4121 26.0039 12.8613 26.0508 12.3105C26.1094 11.748 26.1387 11.209 26.1387 10.6934C26.1387 9.75586 26.0098 8.87109 25.752 8.03906C25.4941 7.19531 25.0371 6.45703 24.3809 5.82422C23.7363 5.17969 22.8574 4.67578 21.7441 4.3125C20.6426 3.9375 19.2363 3.75 17.5254 3.75C16.377 3.75 15.3281 3.86719 14.3789 4.10156C13.4414 4.32422 12.5977 4.64063 11.8477 5.05078C11.0977 5.44922 10.4297 5.92383 9.84375 6.47461C9.25781 7.02539 8.74805 7.62891 8.31445 8.28516C7.88086 8.92969 7.51172 9.62109 7.20703 10.3594C6.91406 11.0859 6.67969 11.8242 6.50391 12.5742C6.32812 13.3242 6.19922 14.0742 6.11719 14.8242C6.03516 15.5742 5.99414 16.3008 5.99414 17.0039C5.99414 18.2812 6.13477 19.4238 6.41602 20.4316C6.69727 21.4395 7.18359 22.2949 7.875 22.998C8.56641 23.7012 9.48633 24.2344 10.6348 24.5977C11.7949 24.9727 13.2422 25.1602 14.9766 25.1602C15.8789 25.1602 16.6992 25.1074 17.4375 25.002C18.1875 24.8965 18.8379 24.7852 19.3887 24.668C19.9512 24.5508 20.4082 24.4395 20.7598 24.334C21.1113 24.2285 21.3516 24.1758 21.4805 24.1758C21.5625 24.1758 21.6328 24.1934 21.6914 24.2285C21.75 24.2754 21.7969 24.3574 21.832 24.4746C21.8672 24.5918 21.8906 24.75 21.9023 24.9492C21.9258 25.1484 21.9375 25.4004 21.9375 25.7051C21.9375 25.9629 21.9316 26.1797 21.9199 26.3555C21.9082 26.5312 21.8848 26.6777 21.8496 26.7949C21.8262 26.9238 21.791 27.0293 21.7441 27.1113C21.6973 27.2051 21.6387 27.2812 21.5684 27.3398C21.498 27.4102 21.2754 27.5098 20.9004 27.6387C20.5371 27.7676 20.0449 27.8906 19.4238 28.0078C18.8145 28.1367 18.0938 28.248 17.2617 28.3418C16.4414 28.4355 15.5391 28.4824 14.5547 28.4824C12.3281 28.4824 10.4297 28.2246 8.85938 27.709C7.28906 27.2051 6 26.4668 4.99219 25.4941C3.99609 24.5332 3.26367 23.3672 2.79492 21.9961C2.33789 20.6133 2.10938 19.0605 2.10938 17.3379C2.10938 16.377 2.17383 15.3984 2.30273 14.4023C2.44336 13.4062 2.6543 12.4219 2.93555 11.4492C3.2168 10.4766 3.58008 9.5332 4.02539 8.61914C4.48242 7.69336 5.02148 6.82031 5.64258 6C6.26367 5.17969 6.97852 4.42969 7.78711 3.75C8.60742 3.05859 9.52148 2.4668 10.5293 1.97461C11.5488 1.48242 12.668 1.10156 13.8867 0.832031C15.1172 0.5625 16.4648 0.427734 17.9297 0.427734C20.0742 0.427734 21.9082 0.667969 23.4316 1.14844C24.9668 1.62891 26.2266 2.30859 27.2109 3.1875C28.1953 4.06641 28.916 5.12695 29.373 6.36914C29.8418 7.59961 30.0762 8.9707 30.0762 10.4824ZM18.2637 12.0469C17.9121 11.4023 17.543 10.916 17.1562 10.5879C16.7812 10.2598 16.3535 10.0957 15.873 10.0957C15.4629 10.0957 15.0938 10.1953 14.7656 10.3945C14.4492 10.582 14.168 10.8398 13.9219 11.168C13.6758 11.4844 13.4648 11.8477 13.2891 12.2578C13.125 12.6562 12.9844 13.0664 12.8672 13.4883C12.7617 13.9102 12.6855 14.3262 12.6387 14.7363C12.5918 15.1348 12.5684 15.4863 12.5684 15.791C12.5684 16.4941 12.6973 17.0508 12.9551 17.4609C13.2129 17.8711 13.6465 18.0762 14.2559 18.0762C14.4785 18.0762 14.707 18.041 14.9414 17.9707C15.1875 17.8887 15.4395 17.7656 15.6973 17.6016C15.9668 17.4258 16.248 17.2031 16.541 16.9336C16.8457 16.6523 17.1797 16.3184 17.543 15.9316L18.2637 12.0469Z" fill="black"/>
</svg>
